<mxfile host="app.diagrams.net" agent="Mozilla/5.0 (X11; Linux x86_64) AppleWebKit/537.36 (KHTML, like Gecko) Chrome/131.0.0.0 Safari/537.36" version="24.9.3">
  <diagram name="Page-1" id="50hgKth9A_5CYGidBD3N">
    <mxGraphModel dx="2234" dy="1854" grid="1" gridSize="10" guides="1" tooltips="1" connect="1" arrows="1" fold="1" page="1" pageScale="1" pageWidth="850" pageHeight="1100" math="0" shadow="0">
      <root>
        <mxCell id="0" />
        <mxCell id="1" parent="0" />
        <mxCell id="RIZztlkSPVPRsgIpINIa-1" value="airline" style="rectangular;whiteSpace=wrap;html=1;align=center;" parent="1" vertex="1">
          <mxGeometry x="240" y="80" width="100" height="40" as="geometry" />
        </mxCell>
        <mxCell id="RIZztlkSPVPRsgIpINIa-2" value="employees" style="rectangular;whiteSpace=wrap;html=1;align=center;" parent="1" vertex="1">
          <mxGeometry x="760" y="80" width="100" height="40" as="geometry" />
        </mxCell>
        <mxCell id="RIZztlkSPVPRsgIpINIa-3" value="aircrafts" style="rectangular;whiteSpace=wrap;html=1;align=center;" parent="1" vertex="1">
          <mxGeometry x="805" y="350" width="100" height="40" as="geometry" />
        </mxCell>
        <mxCell id="RIZztlkSPVPRsgIpINIa-4" value="routes" style="rectangular;whiteSpace=wrap;html=1;align=center;" parent="1" vertex="1">
          <mxGeometry x="354" y="365" width="100" height="40" as="geometry" />
        </mxCell>
        <mxCell id="RIZztlkSPVPRsgIpINIa-5" value="crews" style="rectangular;whiteSpace=wrap;html=1;align=center;" parent="1" vertex="1">
          <mxGeometry x="710" y="590" width="100" height="40" as="geometry" />
        </mxCell>
        <mxCell id="RIZztlkSPVPRsgIpINIa-6" value="transactions" style="rectangular;whiteSpace=wrap;html=1;align=center;" parent="1" vertex="1">
          <mxGeometry x="-20" y="250" width="100" height="40" as="geometry" />
        </mxCell>
        <mxCell id="RIZztlkSPVPRsgIpINIa-7" value="" style="endArrow=none;html=1;rounded=0;exitX=0.1;exitY=0;exitDx=0;exitDy=0;exitPerimeter=0;" parent="1" source="RIZztlkSPVPRsgIpINIa-1" target="RIZztlkSPVPRsgIpINIa-8" edge="1">
          <mxGeometry relative="1" as="geometry">
            <mxPoint x="340" y="99.5" as="sourcePoint" />
            <mxPoint x="430" y="100" as="targetPoint" />
          </mxGeometry>
        </mxCell>
        <mxCell id="RIZztlkSPVPRsgIpINIa-8" value="name" style="ellipse;whiteSpace=wrap;html=1;align=center;" parent="1" vertex="1">
          <mxGeometry x="90" y="40" width="100" height="40" as="geometry" />
        </mxCell>
        <mxCell id="RIZztlkSPVPRsgIpINIa-9" value="id_number" style="ellipse;whiteSpace=wrap;html=1;align=center;fontStyle=4;" parent="1" vertex="1">
          <mxGeometry x="90" y="110" width="100" height="40" as="geometry" />
        </mxCell>
        <mxCell id="RIZztlkSPVPRsgIpINIa-10" value="" style="endArrow=none;html=1;rounded=0;exitX=0;exitY=0.5;exitDx=0;exitDy=0;entryX=1;entryY=0.5;entryDx=0;entryDy=0;" parent="1" source="RIZztlkSPVPRsgIpINIa-1" target="RIZztlkSPVPRsgIpINIa-9" edge="1">
          <mxGeometry relative="1" as="geometry">
            <mxPoint x="260" y="90" as="sourcePoint" />
            <mxPoint x="201" y="38" as="targetPoint" />
          </mxGeometry>
        </mxCell>
        <mxCell id="RIZztlkSPVPRsgIpINIa-11" value="address" style="ellipse;whiteSpace=wrap;html=1;align=center;" parent="1" vertex="1">
          <mxGeometry x="170" y="-10" width="100" height="40" as="geometry" />
        </mxCell>
        <mxCell id="RIZztlkSPVPRsgIpINIa-12" value="" style="endArrow=none;html=1;rounded=0;exitX=0.5;exitY=0;exitDx=0;exitDy=0;entryX=0.5;entryY=1;entryDx=0;entryDy=0;" parent="1" source="RIZztlkSPVPRsgIpINIa-1" target="RIZztlkSPVPRsgIpINIa-11" edge="1">
          <mxGeometry relative="1" as="geometry">
            <mxPoint x="260" y="90" as="sourcePoint" />
            <mxPoint x="201" y="38" as="targetPoint" />
          </mxGeometry>
        </mxCell>
        <mxCell id="RIZztlkSPVPRsgIpINIa-13" value="contact_name" style="ellipse;whiteSpace=wrap;html=1;align=center;" parent="1" vertex="1">
          <mxGeometry x="290" y="-10" width="100" height="40" as="geometry" />
        </mxCell>
        <mxCell id="RIZztlkSPVPRsgIpINIa-14" value="" style="endArrow=none;html=1;rounded=0;entryX=0.5;entryY=1;entryDx=0;entryDy=0;" parent="1" source="RIZztlkSPVPRsgIpINIa-1" target="RIZztlkSPVPRsgIpINIa-13" edge="1">
          <mxGeometry relative="1" as="geometry">
            <mxPoint x="400" y="130" as="sourcePoint" />
            <mxPoint x="311" y="88" as="targetPoint" />
          </mxGeometry>
        </mxCell>
        <mxCell id="RIZztlkSPVPRsgIpINIa-15" value="contact_tel_nums" style="ellipse;shape=doubleEllipse;margin=3;whiteSpace=wrap;html=1;align=center;" parent="1" vertex="1">
          <mxGeometry x="400" y="30" width="130" height="40" as="geometry" />
        </mxCell>
        <mxCell id="RIZztlkSPVPRsgIpINIa-16" value="" style="endArrow=none;html=1;rounded=0;entryX=0;entryY=1;entryDx=0;entryDy=0;exitX=1;exitY=0;exitDx=0;exitDy=0;" parent="1" source="RIZztlkSPVPRsgIpINIa-1" target="RIZztlkSPVPRsgIpINIa-15" edge="1">
          <mxGeometry relative="1" as="geometry">
            <mxPoint x="340" y="210" as="sourcePoint" />
            <mxPoint x="500" y="210" as="targetPoint" />
          </mxGeometry>
        </mxCell>
        <mxCell id="RIZztlkSPVPRsgIpINIa-17" value="id_number" style="ellipse;whiteSpace=wrap;html=1;align=center;fontStyle=4;" parent="1" vertex="1">
          <mxGeometry x="940" y="110" width="100" height="40" as="geometry" />
        </mxCell>
        <mxCell id="RIZztlkSPVPRsgIpINIa-19" value="address" style="ellipse;whiteSpace=wrap;html=1;align=center;" parent="1" vertex="1">
          <mxGeometry x="950" y="40" width="100" height="40" as="geometry" />
        </mxCell>
        <mxCell id="RIZztlkSPVPRsgIpINIa-20" value="gender" style="ellipse;whiteSpace=wrap;html=1;align=center;" parent="1" vertex="1">
          <mxGeometry x="910" y="-20" width="100" height="40" as="geometry" />
        </mxCell>
        <mxCell id="RIZztlkSPVPRsgIpINIa-21" value="position" style="ellipse;whiteSpace=wrap;html=1;align=center;" parent="1" vertex="1">
          <mxGeometry x="800" y="-40" width="100" height="40" as="geometry" />
        </mxCell>
        <mxCell id="RIZztlkSPVPRsgIpINIa-22" value="qualifications" style="ellipse;shape=doubleEllipse;margin=3;whiteSpace=wrap;html=1;align=center;" parent="1" vertex="1">
          <mxGeometry x="590" y="10" width="130" height="40" as="geometry" />
        </mxCell>
        <mxCell id="RIZztlkSPVPRsgIpINIa-23" value="date_of_birth" style="ellipse;whiteSpace=wrap;html=1;align=center;dashed=1;" parent="1" vertex="1">
          <mxGeometry x="676" y="-43" width="100" height="40" as="geometry" />
        </mxCell>
        <mxCell id="RIZztlkSPVPRsgIpINIa-24" value="day" style="ellipse;whiteSpace=wrap;html=1;align=center;" parent="1" vertex="1">
          <mxGeometry x="740" y="-110" width="100" height="40" as="geometry" />
        </mxCell>
        <mxCell id="RIZztlkSPVPRsgIpINIa-25" value="month" style="ellipse;whiteSpace=wrap;html=1;align=center;" parent="1" vertex="1">
          <mxGeometry x="630" y="-110" width="100" height="40" as="geometry" />
        </mxCell>
        <mxCell id="RIZztlkSPVPRsgIpINIa-26" value="year" style="ellipse;whiteSpace=wrap;html=1;align=center;" parent="1" vertex="1">
          <mxGeometry x="550" y="-70" width="100" height="40" as="geometry" />
        </mxCell>
        <mxCell id="RIZztlkSPVPRsgIpINIa-27" value="" style="endArrow=none;html=1;rounded=0;entryX=0;entryY=0.5;entryDx=0;entryDy=0;exitX=1;exitY=0.25;exitDx=0;exitDy=0;" parent="1" source="RIZztlkSPVPRsgIpINIa-2" target="RIZztlkSPVPRsgIpINIa-19" edge="1">
          <mxGeometry relative="1" as="geometry">
            <mxPoint x="861" y="90" as="sourcePoint" />
            <mxPoint x="940" y="74" as="targetPoint" />
          </mxGeometry>
        </mxCell>
        <mxCell id="RIZztlkSPVPRsgIpINIa-28" value="" style="endArrow=none;html=1;rounded=0;entryX=0;entryY=0.5;entryDx=0;entryDy=0;exitX=1;exitY=1;exitDx=0;exitDy=0;" parent="1" source="RIZztlkSPVPRsgIpINIa-2" target="RIZztlkSPVPRsgIpINIa-17" edge="1">
          <mxGeometry relative="1" as="geometry">
            <mxPoint x="870" y="100" as="sourcePoint" />
            <mxPoint x="960" y="70" as="targetPoint" />
          </mxGeometry>
        </mxCell>
        <mxCell id="RIZztlkSPVPRsgIpINIa-29" value="" style="endArrow=none;html=1;rounded=0;entryX=0.05;entryY=0.675;entryDx=0;entryDy=0;exitX=0.75;exitY=0;exitDx=0;exitDy=0;entryPerimeter=0;" parent="1" source="RIZztlkSPVPRsgIpINIa-2" target="RIZztlkSPVPRsgIpINIa-20" edge="1">
          <mxGeometry relative="1" as="geometry">
            <mxPoint x="870" y="130" as="sourcePoint" />
            <mxPoint x="950" y="140" as="targetPoint" />
          </mxGeometry>
        </mxCell>
        <mxCell id="RIZztlkSPVPRsgIpINIa-30" value="" style="endArrow=none;html=1;rounded=0;entryX=0.5;entryY=1;entryDx=0;entryDy=0;exitX=0.5;exitY=0;exitDx=0;exitDy=0;" parent="1" source="RIZztlkSPVPRsgIpINIa-2" target="RIZztlkSPVPRsgIpINIa-21" edge="1">
          <mxGeometry relative="1" as="geometry">
            <mxPoint x="845" y="90" as="sourcePoint" />
            <mxPoint x="925" y="17" as="targetPoint" />
          </mxGeometry>
        </mxCell>
        <mxCell id="RIZztlkSPVPRsgIpINIa-31" value="" style="endArrow=none;html=1;rounded=0;entryX=0.67;entryY=0.925;entryDx=0;entryDy=0;exitX=0.25;exitY=0;exitDx=0;exitDy=0;entryPerimeter=0;" parent="1" source="RIZztlkSPVPRsgIpINIa-2" target="RIZztlkSPVPRsgIpINIa-23" edge="1">
          <mxGeometry relative="1" as="geometry">
            <mxPoint x="820" y="90" as="sourcePoint" />
            <mxPoint x="860" y="10" as="targetPoint" />
          </mxGeometry>
        </mxCell>
        <mxCell id="RIZztlkSPVPRsgIpINIa-32" value="" style="endArrow=none;html=1;rounded=0;entryX=1;entryY=1;entryDx=0;entryDy=0;exitX=0;exitY=0;exitDx=0;exitDy=0;" parent="1" source="RIZztlkSPVPRsgIpINIa-2" target="RIZztlkSPVPRsgIpINIa-22" edge="1">
          <mxGeometry relative="1" as="geometry">
            <mxPoint x="795" y="90" as="sourcePoint" />
            <mxPoint x="753" y="4" as="targetPoint" />
          </mxGeometry>
        </mxCell>
        <mxCell id="RIZztlkSPVPRsgIpINIa-33" value="" style="endArrow=none;html=1;rounded=0;entryX=0.72;entryY=1;entryDx=0;entryDy=0;exitX=0;exitY=0.5;exitDx=0;exitDy=0;entryPerimeter=0;" parent="1" source="RIZztlkSPVPRsgIpINIa-23" target="RIZztlkSPVPRsgIpINIa-26" edge="1">
          <mxGeometry relative="1" as="geometry">
            <mxPoint x="699.5" y="-20" as="sourcePoint" />
            <mxPoint x="640.5" y="-56" as="targetPoint" />
          </mxGeometry>
        </mxCell>
        <mxCell id="RIZztlkSPVPRsgIpINIa-34" value="" style="endArrow=none;html=1;rounded=0;entryX=0.62;entryY=0.95;entryDx=0;entryDy=0;exitX=0.36;exitY=0.1;exitDx=0;exitDy=0;entryPerimeter=0;exitPerimeter=0;" parent="1" source="RIZztlkSPVPRsgIpINIa-23" target="RIZztlkSPVPRsgIpINIa-25" edge="1">
          <mxGeometry relative="1" as="geometry">
            <mxPoint x="730" y="-56.5" as="sourcePoint" />
            <mxPoint x="676" y="-83.5" as="targetPoint" />
          </mxGeometry>
        </mxCell>
        <mxCell id="RIZztlkSPVPRsgIpINIa-35" value="" style="endArrow=none;html=1;rounded=0;entryX=0;entryY=1;entryDx=0;entryDy=0;exitX=0.68;exitY=-0.025;exitDx=0;exitDy=0;exitPerimeter=0;" parent="1" source="RIZztlkSPVPRsgIpINIa-23" target="RIZztlkSPVPRsgIpINIa-24" edge="1">
          <mxGeometry relative="1" as="geometry">
            <mxPoint x="722" y="-29" as="sourcePoint" />
            <mxPoint x="692" y="-82" as="targetPoint" />
          </mxGeometry>
        </mxCell>
        <mxCell id="RIZztlkSPVPRsgIpINIa-36" value="id_number" style="ellipse;whiteSpace=wrap;html=1;align=center;fontStyle=4;" parent="1" vertex="1">
          <mxGeometry x="975" y="310" width="100" height="40" as="geometry" />
        </mxCell>
        <mxCell id="RIZztlkSPVPRsgIpINIa-37" value="capacity" style="ellipse;whiteSpace=wrap;html=1;align=center;" parent="1" vertex="1">
          <mxGeometry x="955" y="390" width="100" height="40" as="geometry" />
        </mxCell>
        <mxCell id="RIZztlkSPVPRsgIpINIa-38" value="model" style="ellipse;whiteSpace=wrap;html=1;align=center;" parent="1" vertex="1">
          <mxGeometry x="845" y="440" width="100" height="40" as="geometry" />
        </mxCell>
        <mxCell id="RIZztlkSPVPRsgIpINIa-39" value="" style="endArrow=none;html=1;rounded=0;entryX=0.09;entryY=0.8;entryDx=0;entryDy=0;exitX=1;exitY=0.5;exitDx=0;exitDy=0;entryPerimeter=0;" parent="1" source="RIZztlkSPVPRsgIpINIa-3" target="RIZztlkSPVPRsgIpINIa-36" edge="1">
          <mxGeometry relative="1" as="geometry">
            <mxPoint x="905" y="340" as="sourcePoint" />
            <mxPoint x="985" y="350" as="targetPoint" />
          </mxGeometry>
        </mxCell>
        <mxCell id="RIZztlkSPVPRsgIpINIa-40" value="" style="endArrow=none;html=1;rounded=0;entryX=0.05;entryY=0.7;entryDx=0;entryDy=0;exitX=1;exitY=1;exitDx=0;exitDy=0;entryPerimeter=0;" parent="1" source="RIZztlkSPVPRsgIpINIa-3" target="RIZztlkSPVPRsgIpINIa-37" edge="1">
          <mxGeometry relative="1" as="geometry">
            <mxPoint x="915" y="380" as="sourcePoint" />
            <mxPoint x="994" y="352" as="targetPoint" />
          </mxGeometry>
        </mxCell>
        <mxCell id="RIZztlkSPVPRsgIpINIa-41" value="" style="endArrow=none;html=1;rounded=0;entryX=0.34;entryY=0;entryDx=0;entryDy=0;exitX=0.75;exitY=1;exitDx=0;exitDy=0;entryPerimeter=0;" parent="1" source="RIZztlkSPVPRsgIpINIa-3" target="RIZztlkSPVPRsgIpINIa-38" edge="1">
          <mxGeometry relative="1" as="geometry">
            <mxPoint x="827.5" y="400" as="sourcePoint" />
            <mxPoint x="882.5" y="428" as="targetPoint" />
          </mxGeometry>
        </mxCell>
        <mxCell id="RIZztlkSPVPRsgIpINIa-42" value="id_number" style="ellipse;whiteSpace=wrap;html=1;align=center;fontStyle=4;" parent="1" vertex="1">
          <mxGeometry x="214" y="365" width="100" height="40" as="geometry" />
        </mxCell>
        <mxCell id="RIZztlkSPVPRsgIpINIa-44" value="origin" style="ellipse;whiteSpace=wrap;html=1;align=center;" parent="1" vertex="1">
          <mxGeometry x="239" y="425" width="100" height="40" as="geometry" />
        </mxCell>
        <mxCell id="RIZztlkSPVPRsgIpINIa-45" value="destination" style="ellipse;whiteSpace=wrap;html=1;align=center;" parent="1" vertex="1">
          <mxGeometry x="344" y="455" width="100" height="40" as="geometry" />
        </mxCell>
        <mxCell id="RIZztlkSPVPRsgIpINIa-46" value="distance" style="ellipse;whiteSpace=wrap;html=1;align=center;" parent="1" vertex="1">
          <mxGeometry x="454" y="435" width="100" height="40" as="geometry" />
        </mxCell>
        <mxCell id="RIZztlkSPVPRsgIpINIa-47" value="distance" style="ellipse;whiteSpace=wrap;html=1;align=center;" parent="1" vertex="1">
          <mxGeometry x="490" y="385" width="100" height="40" as="geometry" />
        </mxCell>
        <mxCell id="RIZztlkSPVPRsgIpINIa-48" value="" style="endArrow=none;html=1;rounded=0;entryX=0.73;entryY=0.05;entryDx=0;entryDy=0;exitX=0;exitY=0.75;exitDx=0;exitDy=0;entryPerimeter=0;" parent="1" source="RIZztlkSPVPRsgIpINIa-4" target="RIZztlkSPVPRsgIpINIa-44" edge="1">
          <mxGeometry relative="1" as="geometry">
            <mxPoint x="305" y="485" as="sourcePoint" />
            <mxPoint x="304" y="535" as="targetPoint" />
          </mxGeometry>
        </mxCell>
        <mxCell id="RIZztlkSPVPRsgIpINIa-49" value="" style="endArrow=none;html=1;rounded=0;entryX=1;entryY=0.5;entryDx=0;entryDy=0;exitX=0;exitY=0.5;exitDx=0;exitDy=0;" parent="1" source="RIZztlkSPVPRsgIpINIa-4" target="RIZztlkSPVPRsgIpINIa-42" edge="1">
          <mxGeometry relative="1" as="geometry">
            <mxPoint x="364" y="405" as="sourcePoint" />
            <mxPoint x="322" y="437" as="targetPoint" />
          </mxGeometry>
        </mxCell>
        <mxCell id="RIZztlkSPVPRsgIpINIa-50" value="" style="endArrow=none;html=1;rounded=0;entryX=0.5;entryY=0;entryDx=0;entryDy=0;exitX=0.44;exitY=1.025;exitDx=0;exitDy=0;exitPerimeter=0;" parent="1" source="RIZztlkSPVPRsgIpINIa-4" target="RIZztlkSPVPRsgIpINIa-45" edge="1">
          <mxGeometry relative="1" as="geometry">
            <mxPoint x="364" y="395" as="sourcePoint" />
            <mxPoint x="324" y="395" as="targetPoint" />
          </mxGeometry>
        </mxCell>
        <mxCell id="RIZztlkSPVPRsgIpINIa-51" value="" style="endArrow=none;html=1;rounded=0;entryX=0;entryY=0;entryDx=0;entryDy=0;exitX=0.75;exitY=1;exitDx=0;exitDy=0;" parent="1" source="RIZztlkSPVPRsgIpINIa-4" target="RIZztlkSPVPRsgIpINIa-46" edge="1">
          <mxGeometry relative="1" as="geometry">
            <mxPoint x="389" y="415" as="sourcePoint" />
            <mxPoint x="404" y="465" as="targetPoint" />
          </mxGeometry>
        </mxCell>
        <mxCell id="RIZztlkSPVPRsgIpINIa-52" value="" style="endArrow=none;html=1;rounded=0;entryX=0;entryY=0.5;entryDx=0;entryDy=0;exitX=1;exitY=0.75;exitDx=0;exitDy=0;" parent="1" source="RIZztlkSPVPRsgIpINIa-4" target="RIZztlkSPVPRsgIpINIa-47" edge="1">
          <mxGeometry relative="1" as="geometry">
            <mxPoint x="439" y="415" as="sourcePoint" />
            <mxPoint x="479" y="451" as="targetPoint" />
          </mxGeometry>
        </mxCell>
        <mxCell id="RIZztlkSPVPRsgIpINIa-53" value="major_pilot" style="ellipse;whiteSpace=wrap;html=1;align=center;fontStyle=4;" parent="1" vertex="1">
          <mxGeometry x="540" y="600" width="100" height="40" as="geometry" />
        </mxCell>
        <mxCell id="RIZztlkSPVPRsgIpINIa-54" value="ass_pilot" style="ellipse;whiteSpace=wrap;html=1;align=center;" parent="1" vertex="1">
          <mxGeometry x="600" y="660" width="100" height="40" as="geometry" />
        </mxCell>
        <mxCell id="RIZztlkSPVPRsgIpINIa-57" value="hostesses" style="ellipse;shape=doubleEllipse;margin=3;whiteSpace=wrap;html=1;align=center;" parent="1" vertex="1">
          <mxGeometry x="740" y="670" width="130" height="40" as="geometry" />
        </mxCell>
        <mxCell id="RIZztlkSPVPRsgIpINIa-58" value="" style="endArrow=none;html=1;rounded=0;entryX=0.5;entryY=0;entryDx=0;entryDy=0;exitX=0.5;exitY=1;exitDx=0;exitDy=0;" parent="1" source="RIZztlkSPVPRsgIpINIa-5" target="RIZztlkSPVPRsgIpINIa-57" edge="1">
          <mxGeometry relative="1" as="geometry">
            <mxPoint x="770" y="640" as="sourcePoint" />
            <mxPoint x="1068" y="652" as="targetPoint" />
          </mxGeometry>
        </mxCell>
        <mxCell id="RIZztlkSPVPRsgIpINIa-59" value="" style="endArrow=none;html=1;rounded=0;entryX=0.74;entryY=0.125;entryDx=0;entryDy=0;exitX=0.18;exitY=1.05;exitDx=0;exitDy=0;exitPerimeter=0;entryPerimeter=0;" parent="1" source="RIZztlkSPVPRsgIpINIa-5" target="RIZztlkSPVPRsgIpINIa-54" edge="1">
          <mxGeometry relative="1" as="geometry">
            <mxPoint x="770" y="640" as="sourcePoint" />
            <mxPoint x="815" y="680" as="targetPoint" />
          </mxGeometry>
        </mxCell>
        <mxCell id="RIZztlkSPVPRsgIpINIa-60" value="" style="endArrow=none;html=1;rounded=0;entryX=1;entryY=0.5;entryDx=0;entryDy=0;exitX=0;exitY=0.5;exitDx=0;exitDy=0;" parent="1" source="RIZztlkSPVPRsgIpINIa-5" target="RIZztlkSPVPRsgIpINIa-53" edge="1">
          <mxGeometry relative="1" as="geometry">
            <mxPoint x="732" y="643" as="sourcePoint" />
            <mxPoint x="684" y="675" as="targetPoint" />
          </mxGeometry>
        </mxCell>
        <mxCell id="RIZztlkSPVPRsgIpINIa-61" value="id_number" style="ellipse;whiteSpace=wrap;html=1;align=center;fontStyle=4;" parent="1" vertex="1">
          <mxGeometry x="-100" y="170" width="100" height="40" as="geometry" />
        </mxCell>
        <mxCell id="RIZztlkSPVPRsgIpINIa-62" value="date" style="ellipse;whiteSpace=wrap;html=1;align=center;" parent="1" vertex="1">
          <mxGeometry x="-160" y="220" width="100" height="40" as="geometry" />
        </mxCell>
        <mxCell id="RIZztlkSPVPRsgIpINIa-63" value="description" style="ellipse;whiteSpace=wrap;html=1;align=center;" parent="1" vertex="1">
          <mxGeometry x="-150" y="270" width="100" height="40" as="geometry" />
        </mxCell>
        <mxCell id="RIZztlkSPVPRsgIpINIa-64" value="money_amount" style="ellipse;whiteSpace=wrap;html=1;align=center;" parent="1" vertex="1">
          <mxGeometry x="-110" y="320" width="100" height="40" as="geometry" />
        </mxCell>
        <mxCell id="RIZztlkSPVPRsgIpINIa-65" value="" style="endArrow=none;html=1;rounded=0;entryX=1;entryY=0;entryDx=0;entryDy=0;exitX=0.25;exitY=1;exitDx=0;exitDy=0;" parent="1" source="RIZztlkSPVPRsgIpINIa-6" target="RIZztlkSPVPRsgIpINIa-64" edge="1">
          <mxGeometry relative="1" as="geometry">
            <mxPoint x="160" y="430" as="sourcePoint" />
            <mxPoint x="90" y="440" as="targetPoint" />
          </mxGeometry>
        </mxCell>
        <mxCell id="RIZztlkSPVPRsgIpINIa-66" value="" style="endArrow=none;html=1;rounded=0;entryX=1;entryY=0.5;entryDx=0;entryDy=0;exitX=0;exitY=0.75;exitDx=0;exitDy=0;" parent="1" source="RIZztlkSPVPRsgIpINIa-6" target="RIZztlkSPVPRsgIpINIa-63" edge="1">
          <mxGeometry relative="1" as="geometry">
            <mxPoint x="15" y="300" as="sourcePoint" />
            <mxPoint x="-15" y="336" as="targetPoint" />
          </mxGeometry>
        </mxCell>
        <mxCell id="RIZztlkSPVPRsgIpINIa-67" value="" style="endArrow=none;html=1;rounded=0;entryX=1;entryY=0.5;entryDx=0;entryDy=0;exitX=0;exitY=0.25;exitDx=0;exitDy=0;" parent="1" source="RIZztlkSPVPRsgIpINIa-6" target="RIZztlkSPVPRsgIpINIa-62" edge="1">
          <mxGeometry relative="1" as="geometry">
            <mxPoint x="-10" y="290" as="sourcePoint" />
            <mxPoint x="-40" y="300" as="targetPoint" />
          </mxGeometry>
        </mxCell>
        <mxCell id="RIZztlkSPVPRsgIpINIa-68" value="" style="endArrow=none;html=1;rounded=0;entryX=0.72;entryY=1.025;entryDx=0;entryDy=0;exitX=0.25;exitY=0;exitDx=0;exitDy=0;entryPerimeter=0;" parent="1" source="RIZztlkSPVPRsgIpINIa-6" target="RIZztlkSPVPRsgIpINIa-61" edge="1">
          <mxGeometry relative="1" as="geometry">
            <mxPoint x="-10" y="270" as="sourcePoint" />
            <mxPoint x="-50" y="250" as="targetPoint" />
          </mxGeometry>
        </mxCell>
        <mxCell id="RIZztlkSPVPRsgIpINIa-69" value="" style="endArrow=none;html=1;rounded=0;entryX=0;entryY=0.75;entryDx=0;entryDy=0;exitX=1;exitY=0.5;exitDx=0;exitDy=0;" parent="1" source="RIZztlkSPVPRsgIpINIa-70" target="RIZztlkSPVPRsgIpINIa-2" edge="1">
          <mxGeometry relative="1" as="geometry">
            <mxPoint x="620" y="120" as="sourcePoint" />
            <mxPoint x="780" y="99.5" as="targetPoint" />
          </mxGeometry>
        </mxCell>
        <mxCell id="RIZztlkSPVPRsgIpINIa-70" value="works" style="shape=rhombus;perimeter=rhombusPerimeter;whiteSpace=wrap;html=1;align=center;" parent="1" vertex="1">
          <mxGeometry x="500" y="90" width="120" height="60" as="geometry" />
        </mxCell>
        <mxCell id="RIZztlkSPVPRsgIpINIa-71" value="" style="endArrow=none;html=1;rounded=0;exitX=1;exitY=0.75;exitDx=0;exitDy=0;entryX=0;entryY=0.5;entryDx=0;entryDy=0;" parent="1" source="RIZztlkSPVPRsgIpINIa-75" target="RIZztlkSPVPRsgIpINIa-70" edge="1">
          <mxGeometry relative="1" as="geometry">
            <mxPoint x="355" y="180" as="sourcePoint" />
            <mxPoint x="495" y="130" as="targetPoint" />
          </mxGeometry>
        </mxCell>
        <mxCell id="RIZztlkSPVPRsgIpINIa-72" value="" style="endArrow=none;html=1;rounded=0;entryX=0;entryY=0.75;entryDx=0;entryDy=0;exitX=0.85;exitY=0.367;exitDx=0;exitDy=0;exitPerimeter=0;" parent="1" source="RIZztlkSPVPRsgIpINIa-73" edge="1">
          <mxGeometry relative="1" as="geometry">
            <mxPoint x="620" y="110" as="sourcePoint" />
            <mxPoint x="760" y="100" as="targetPoint" />
          </mxGeometry>
        </mxCell>
        <mxCell id="RIZztlkSPVPRsgIpINIa-74" value="" style="endArrow=none;html=1;rounded=0;entryX=0.154;entryY=0.3;entryDx=0;entryDy=0;exitX=0.85;exitY=0.367;exitDx=0;exitDy=0;exitPerimeter=0;entryPerimeter=0;" parent="1" source="RIZztlkSPVPRsgIpINIa-70" target="RIZztlkSPVPRsgIpINIa-73" edge="1">
          <mxGeometry relative="1" as="geometry">
            <mxPoint x="602" y="112" as="sourcePoint" />
            <mxPoint x="760" y="100" as="targetPoint" />
          </mxGeometry>
        </mxCell>
        <mxCell id="RIZztlkSPVPRsgIpINIa-73" value="M" style="text;strokeColor=none;fillColor=none;spacingLeft=4;spacingRight=4;overflow=hidden;rotatable=0;points=[[0,0.5],[1,0.5]];portConstraint=eastwest;fontSize=12;whiteSpace=wrap;html=1;" parent="1" vertex="1">
          <mxGeometry x="720" y="90" width="26" height="30" as="geometry" />
        </mxCell>
        <mxCell id="RIZztlkSPVPRsgIpINIa-76" value="" style="endArrow=none;html=1;rounded=0;exitX=1;exitY=0.75;exitDx=0;exitDy=0;entryX=0;entryY=0.5;entryDx=0;entryDy=0;" parent="1" source="RIZztlkSPVPRsgIpINIa-1" target="RIZztlkSPVPRsgIpINIa-75" edge="1">
          <mxGeometry relative="1" as="geometry">
            <mxPoint x="340" y="110" as="sourcePoint" />
            <mxPoint x="500" y="120" as="targetPoint" />
          </mxGeometry>
        </mxCell>
        <mxCell id="RIZztlkSPVPRsgIpINIa-75" value="1" style="text;strokeColor=none;fillColor=none;spacingLeft=4;spacingRight=4;overflow=hidden;rotatable=0;points=[[0,0.5],[1,0.5]];portConstraint=eastwest;fontSize=12;whiteSpace=wrap;html=1;" parent="1" vertex="1">
          <mxGeometry x="364" y="101" width="26" height="30" as="geometry" />
        </mxCell>
        <mxCell id="RIZztlkSPVPRsgIpINIa-77" value="owns" style="shape=rhombus;perimeter=rhombusPerimeter;whiteSpace=wrap;html=1;align=center;" parent="1" vertex="1">
          <mxGeometry x="595" y="200" width="120" height="60" as="geometry" />
        </mxCell>
        <mxCell id="RIZztlkSPVPRsgIpINIa-78" value="" style="endArrow=none;html=1;rounded=0;exitX=0.75;exitY=1;exitDx=0;exitDy=0;entryX=0;entryY=0.5;entryDx=0;entryDy=0;" parent="1" source="RIZztlkSPVPRsgIpINIa-83" target="RIZztlkSPVPRsgIpINIa-77" edge="1">
          <mxGeometry relative="1" as="geometry">
            <mxPoint x="400" y="134" as="sourcePoint" />
            <mxPoint x="510" y="130" as="targetPoint" />
          </mxGeometry>
        </mxCell>
        <mxCell id="RIZztlkSPVPRsgIpINIa-79" value="" style="endArrow=none;html=1;rounded=0;exitX=1;exitY=0.5;exitDx=0;exitDy=0;entryX=0.5;entryY=0;entryDx=0;entryDy=0;" parent="1" source="RIZztlkSPVPRsgIpINIa-77" target="RIZztlkSPVPRsgIpINIa-3" edge="1">
          <mxGeometry relative="1" as="geometry">
            <mxPoint x="325" y="130" as="sourcePoint" />
            <mxPoint x="605" y="240" as="targetPoint" />
          </mxGeometry>
        </mxCell>
        <mxCell id="RIZztlkSPVPRsgIpINIa-80" value="" style="endArrow=none;html=1;rounded=0;exitX=1;exitY=0.5;exitDx=0;exitDy=0;entryX=0.5;entryY=0;entryDx=0;entryDy=0;" parent="1" source="RIZztlkSPVPRsgIpINIa-81" edge="1">
          <mxGeometry relative="1" as="geometry">
            <mxPoint x="710" y="232" as="sourcePoint" />
            <mxPoint x="850" y="352" as="targetPoint" />
          </mxGeometry>
        </mxCell>
        <mxCell id="RIZztlkSPVPRsgIpINIa-82" value="" style="endArrow=none;html=1;rounded=0;exitX=1;exitY=0.5;exitDx=0;exitDy=0;entryX=0.5;entryY=0;entryDx=0;entryDy=0;" parent="1" target="RIZztlkSPVPRsgIpINIa-81" edge="1">
          <mxGeometry relative="1" as="geometry">
            <mxPoint x="710" y="232" as="sourcePoint" />
            <mxPoint x="850" y="352" as="targetPoint" />
          </mxGeometry>
        </mxCell>
        <mxCell id="RIZztlkSPVPRsgIpINIa-81" value="M" style="text;strokeColor=none;fillColor=none;spacingLeft=4;spacingRight=4;overflow=hidden;rotatable=0;points=[[0,0.5],[1,0.5]];portConstraint=eastwest;fontSize=12;whiteSpace=wrap;html=1;" parent="1" vertex="1">
          <mxGeometry x="790" y="315" width="26" height="30" as="geometry" />
        </mxCell>
        <mxCell id="RIZztlkSPVPRsgIpINIa-84" value="" style="endArrow=none;html=1;rounded=0;exitX=0.75;exitY=1;exitDx=0;exitDy=0;entryX=0;entryY=0.5;entryDx=0;entryDy=0;" parent="1" source="RIZztlkSPVPRsgIpINIa-1" target="RIZztlkSPVPRsgIpINIa-83" edge="1">
          <mxGeometry relative="1" as="geometry">
            <mxPoint x="315" y="120" as="sourcePoint" />
            <mxPoint x="595" y="230" as="targetPoint" />
          </mxGeometry>
        </mxCell>
        <mxCell id="RIZztlkSPVPRsgIpINIa-83" value="1" style="text;strokeColor=none;fillColor=none;spacingLeft=4;spacingRight=4;overflow=hidden;rotatable=0;points=[[0,0.5],[1,0.5]];portConstraint=eastwest;fontSize=12;whiteSpace=wrap;html=1;" parent="1" vertex="1">
          <mxGeometry x="350" y="131" width="26" height="30" as="geometry" />
        </mxCell>
        <mxCell id="RIZztlkSPVPRsgIpINIa-85" value="" style="endArrow=none;html=1;rounded=0;entryX=0;entryY=0.5;entryDx=0;entryDy=0;exitX=1;exitY=0.5;exitDx=0;exitDy=0;" parent="1" source="RIZztlkSPVPRsgIpINIa-88" edge="1">
          <mxGeometry relative="1" as="geometry">
            <mxPoint x="650" y="340" as="sourcePoint" />
            <mxPoint x="805" y="374.5" as="targetPoint" />
          </mxGeometry>
        </mxCell>
        <mxCell id="RIZztlkSPVPRsgIpINIa-86" value="has" style="shape=rhombus;perimeter=rhombusPerimeter;whiteSpace=wrap;html=1;align=center;" parent="1" vertex="1">
          <mxGeometry x="620" y="300" width="120" height="60" as="geometry" />
        </mxCell>
        <mxCell id="RIZztlkSPVPRsgIpINIa-87" value="" style="endArrow=none;html=1;rounded=0;entryX=0.5;entryY=0;entryDx=0;entryDy=0;exitX=0;exitY=0.5;exitDx=0;exitDy=0;" parent="1" source="RIZztlkSPVPRsgIpINIa-90" target="RIZztlkSPVPRsgIpINIa-4" edge="1">
          <mxGeometry relative="1" as="geometry">
            <mxPoint x="480" y="360" as="sourcePoint" />
            <mxPoint x="629" y="359.5" as="targetPoint" />
          </mxGeometry>
        </mxCell>
        <mxCell id="RIZztlkSPVPRsgIpINIa-89" value="" style="endArrow=none;html=1;rounded=0;entryX=0;entryY=0.5;entryDx=0;entryDy=0;exitX=1;exitY=1;exitDx=0;exitDy=0;" parent="1" source="RIZztlkSPVPRsgIpINIa-86" target="RIZztlkSPVPRsgIpINIa-88" edge="1">
          <mxGeometry relative="1" as="geometry">
            <mxPoint x="710" y="345" as="sourcePoint" />
            <mxPoint x="805" y="374.5" as="targetPoint" />
          </mxGeometry>
        </mxCell>
        <mxCell id="RIZztlkSPVPRsgIpINIa-88" value="M" style="text;strokeColor=none;fillColor=none;spacingLeft=4;spacingRight=4;overflow=hidden;rotatable=0;points=[[0,0.5],[1,0.5]];portConstraint=eastwest;fontSize=12;whiteSpace=wrap;html=1;" parent="1" vertex="1">
          <mxGeometry x="760" y="355" width="26" height="30" as="geometry" />
        </mxCell>
        <mxCell id="RIZztlkSPVPRsgIpINIa-91" value="" style="endArrow=none;html=1;rounded=0;entryX=0.885;entryY=0.267;entryDx=0;entryDy=0;exitX=0;exitY=1;exitDx=0;exitDy=0;entryPerimeter=0;" parent="1" source="RIZztlkSPVPRsgIpINIa-86" target="RIZztlkSPVPRsgIpINIa-90" edge="1">
          <mxGeometry relative="1" as="geometry">
            <mxPoint x="650" y="345" as="sourcePoint" />
            <mxPoint x="590" y="390" as="targetPoint" />
          </mxGeometry>
        </mxCell>
        <mxCell id="RIZztlkSPVPRsgIpINIa-90" value="M" style="text;strokeColor=none;fillColor=none;spacingLeft=4;spacingRight=4;overflow=hidden;rotatable=0;points=[[0,0.5],[1,0.5]];portConstraint=eastwest;fontSize=12;whiteSpace=wrap;html=1;" parent="1" vertex="1">
          <mxGeometry x="474" y="335" width="26" height="30" as="geometry" />
        </mxCell>
        <mxCell id="RIZztlkSPVPRsgIpINIa-92" value="assigned" style="shape=rhombus;perimeter=rhombusPerimeter;whiteSpace=wrap;html=1;align=center;" parent="1" vertex="1">
          <mxGeometry x="715" y="455" width="120" height="60" as="geometry" />
        </mxCell>
        <mxCell id="RIZztlkSPVPRsgIpINIa-93" value="" style="endArrow=none;html=1;rounded=0;entryX=0.5;entryY=0;entryDx=0;entryDy=0;exitX=0.25;exitY=1;exitDx=0;exitDy=0;" parent="1" source="RIZztlkSPVPRsgIpINIa-95" target="RIZztlkSPVPRsgIpINIa-92" edge="1">
          <mxGeometry relative="1" as="geometry">
            <mxPoint x="890" y="400" as="sourcePoint" />
            <mxPoint x="889" y="450" as="targetPoint" />
          </mxGeometry>
        </mxCell>
        <mxCell id="RIZztlkSPVPRsgIpINIa-94" value="" style="endArrow=none;html=1;rounded=0;entryX=0.5;entryY=0;entryDx=0;entryDy=0;exitX=0.379;exitY=0.971;exitDx=0;exitDy=0;exitPerimeter=0;" parent="1" source="RIZztlkSPVPRsgIpINIa-97" target="RIZztlkSPVPRsgIpINIa-5" edge="1">
          <mxGeometry relative="1" as="geometry">
            <mxPoint x="840" y="400" as="sourcePoint" />
            <mxPoint x="796" y="460" as="targetPoint" />
          </mxGeometry>
        </mxCell>
        <mxCell id="RIZztlkSPVPRsgIpINIa-96" value="" style="endArrow=none;html=1;rounded=0;entryX=1;entryY=0.5;entryDx=0;entryDy=0;exitX=0.25;exitY=1;exitDx=0;exitDy=0;" parent="1" source="RIZztlkSPVPRsgIpINIa-3" target="RIZztlkSPVPRsgIpINIa-95" edge="1">
          <mxGeometry relative="1" as="geometry">
            <mxPoint x="830" y="390" as="sourcePoint" />
            <mxPoint x="775" y="455" as="targetPoint" />
          </mxGeometry>
        </mxCell>
        <mxCell id="RIZztlkSPVPRsgIpINIa-95" value="1" style="text;strokeColor=none;fillColor=none;spacingLeft=4;spacingRight=4;overflow=hidden;rotatable=0;points=[[0,0.5],[1,0.5]];portConstraint=eastwest;fontSize=12;whiteSpace=wrap;html=1;" parent="1" vertex="1">
          <mxGeometry x="792" y="395" width="26" height="30" as="geometry" />
        </mxCell>
        <mxCell id="RIZztlkSPVPRsgIpINIa-98" value="" style="endArrow=none;html=1;rounded=0;entryX=0.5;entryY=0;entryDx=0;entryDy=0;exitX=0.551;exitY=0.937;exitDx=0;exitDy=0;exitPerimeter=0;" parent="1" source="RIZztlkSPVPRsgIpINIa-92" target="RIZztlkSPVPRsgIpINIa-97" edge="1">
          <mxGeometry relative="1" as="geometry">
            <mxPoint x="782" y="513" as="sourcePoint" />
            <mxPoint x="760" y="590" as="targetPoint" />
          </mxGeometry>
        </mxCell>
        <mxCell id="RIZztlkSPVPRsgIpINIa-97" value="1" style="text;strokeColor=none;fillColor=none;spacingLeft=4;spacingRight=4;overflow=hidden;rotatable=0;points=[[0,0.5],[1,0.5]];portConstraint=eastwest;fontSize=12;whiteSpace=wrap;html=1;" parent="1" vertex="1">
          <mxGeometry x="750" y="550" width="26" height="30" as="geometry" />
        </mxCell>
        <mxCell id="RIZztlkSPVPRsgIpINIa-99" value="make" style="shape=rhombus;perimeter=rhombusPerimeter;whiteSpace=wrap;html=1;align=center;" parent="1" vertex="1">
          <mxGeometry x="130" y="200" width="120" height="60" as="geometry" />
        </mxCell>
        <mxCell id="RIZztlkSPVPRsgIpINIa-100" value="" style="endArrow=none;html=1;rounded=0;entryX=0.5;entryY=1;entryDx=0;entryDy=0;exitX=1;exitY=0;exitDx=0;exitDy=0;" parent="1" source="RIZztlkSPVPRsgIpINIa-102" target="RIZztlkSPVPRsgIpINIa-1" edge="1">
          <mxGeometry relative="1" as="geometry">
            <mxPoint x="15" y="300" as="sourcePoint" />
            <mxPoint x="-15" y="336" as="targetPoint" />
          </mxGeometry>
        </mxCell>
        <mxCell id="RIZztlkSPVPRsgIpINIa-101" value="" style="endArrow=none;html=1;rounded=0;entryX=1;entryY=0.5;entryDx=0;entryDy=0;exitX=0;exitY=1;exitDx=0;exitDy=0;" parent="1" source="RIZztlkSPVPRsgIpINIa-104" target="RIZztlkSPVPRsgIpINIa-6" edge="1">
          <mxGeometry relative="1" as="geometry">
            <mxPoint x="160" y="246" as="sourcePoint" />
            <mxPoint x="287" y="134" as="targetPoint" />
          </mxGeometry>
        </mxCell>
        <mxCell id="RIZztlkSPVPRsgIpINIa-103" value="" style="endArrow=none;html=1;rounded=0;entryX=0.5;entryY=1;entryDx=0;entryDy=0;exitX=1;exitY=0;exitDx=0;exitDy=0;" parent="1" source="RIZztlkSPVPRsgIpINIa-99" target="RIZztlkSPVPRsgIpINIa-102" edge="1">
          <mxGeometry relative="1" as="geometry">
            <mxPoint x="220" y="215" as="sourcePoint" />
            <mxPoint x="290" y="120" as="targetPoint" />
          </mxGeometry>
        </mxCell>
        <mxCell id="RIZztlkSPVPRsgIpINIa-102" value="1" style="text;strokeColor=none;fillColor=none;spacingLeft=4;spacingRight=4;overflow=hidden;rotatable=0;points=[[0,0.5],[1,0.5]];portConstraint=eastwest;fontSize=12;whiteSpace=wrap;html=1;" parent="1" vertex="1">
          <mxGeometry x="264" y="131" width="26" height="30" as="geometry" />
        </mxCell>
        <mxCell id="RIZztlkSPVPRsgIpINIa-105" value="" style="endArrow=none;html=1;rounded=0;entryX=1;entryY=0.5;entryDx=0;entryDy=0;exitX=0;exitY=1;exitDx=0;exitDy=0;" parent="1" source="RIZztlkSPVPRsgIpINIa-99" target="RIZztlkSPVPRsgIpINIa-104" edge="1">
          <mxGeometry relative="1" as="geometry">
            <mxPoint x="160" y="245" as="sourcePoint" />
            <mxPoint x="80" y="270" as="targetPoint" />
          </mxGeometry>
        </mxCell>
        <mxCell id="RIZztlkSPVPRsgIpINIa-104" value="M" style="text;strokeColor=none;fillColor=none;spacingLeft=4;spacingRight=4;overflow=hidden;rotatable=0;points=[[0,0.5],[1,0.5]];portConstraint=eastwest;fontSize=12;whiteSpace=wrap;html=1;" parent="1" vertex="1">
          <mxGeometry x="90" y="240" width="26" height="30" as="geometry" />
        </mxCell>
        <mxCell id="RIZztlkSPVPRsgIpINIa-106" value="" style="endArrow=none;html=1;rounded=0;entryX=1;entryY=0.906;entryDx=0;entryDy=0;exitX=0.358;exitY=0.871;exitDx=0;exitDy=0;entryPerimeter=0;exitPerimeter=0;" parent="1" source="RIZztlkSPVPRsgIpINIa-99" target="RIZztlkSPVPRsgIpINIa-104" edge="1">
          <mxGeometry relative="1" as="geometry">
            <mxPoint x="170" y="255" as="sourcePoint" />
            <mxPoint x="126" y="275" as="targetPoint" />
          </mxGeometry>
        </mxCell>
        <mxCell id="RIZztlkSPVPRsgIpINIa-107" value="" style="endArrow=none;html=1;rounded=0;entryX=1;entryY=0.25;entryDx=0;entryDy=0;exitX=-0.035;exitY=0.548;exitDx=0;exitDy=0;exitPerimeter=0;" parent="1" source="RIZztlkSPVPRsgIpINIa-104" target="RIZztlkSPVPRsgIpINIa-6" edge="1">
          <mxGeometry relative="1" as="geometry">
            <mxPoint x="90" y="270" as="sourcePoint" />
            <mxPoint x="80" y="260" as="targetPoint" />
          </mxGeometry>
        </mxCell>
        <mxCell id="RIZztlkSPVPRsgIpINIa-108" value="" style="endArrow=none;html=1;rounded=0;entryX=0.617;entryY=0.143;entryDx=0;entryDy=0;exitX=0.382;exitY=1.075;exitDx=0;exitDy=0;exitPerimeter=0;entryPerimeter=0;" parent="1" source="RIZztlkSPVPRsgIpINIa-3" target="RIZztlkSPVPRsgIpINIa-92" edge="1">
          <mxGeometry relative="1" as="geometry">
            <mxPoint x="814" y="440" as="sourcePoint" />
            <mxPoint x="785" y="465" as="targetPoint" />
          </mxGeometry>
        </mxCell>
        <mxCell id="RIZztlkSPVPRsgIpINIa-109" value="" style="endArrow=none;html=1;rounded=0;entryX=0.154;entryY=0;entryDx=0;entryDy=0;exitX=0.441;exitY=0.956;exitDx=0;exitDy=0;exitPerimeter=0;entryPerimeter=0;" parent="1" source="RIZztlkSPVPRsgIpINIa-92" target="RIZztlkSPVPRsgIpINIa-97" edge="1">
          <mxGeometry relative="1" as="geometry">
            <mxPoint x="853" y="403" as="sourcePoint" />
            <mxPoint x="799" y="474" as="targetPoint" />
          </mxGeometry>
        </mxCell>
        <mxCell id="RIZztlkSPVPRsgIpINIa-110" value="" style="endArrow=none;html=1;rounded=0;entryX=0.416;entryY=-0.015;entryDx=0;entryDy=0;exitX=0.024;exitY=0.971;exitDx=0;exitDy=0;exitPerimeter=0;entryPerimeter=0;" parent="1" source="RIZztlkSPVPRsgIpINIa-97" target="RIZztlkSPVPRsgIpINIa-5" edge="1">
          <mxGeometry relative="1" as="geometry">
            <mxPoint x="778" y="522" as="sourcePoint" />
            <mxPoint x="760" y="560" as="targetPoint" />
          </mxGeometry>
        </mxCell>
      </root>
    </mxGraphModel>
  </diagram>
</mxfile>
